<svg width="80" height="81" viewBox="0 0 80 81" fill="none" xmlns="http://www.w3.org/2000/svg">
<rect y="0.648438" width="80" height="80" rx="8" fill="#ECF4F9"/>
<path d="M0 67.6484H80V72.6484C80 77.0667 76.4183 80.6484 72 80.6484H8C3.58172 80.6484 0 77.0667 0 72.6484V67.6484Z" fill="#FFB59A"/>
<rect x="12.9375" y="43.1406" width="4.89167" height="19.5802" transform="rotate(-15 12.9375 43.1406)" fill="#A8CBE2"/>
<path fill-rule="evenodd" clip-rule="evenodd" d="M28.1208 67.6455H11C11.0005 62.9181 14.8329 59.0859 19.5604 59.0859C24.2879 59.0859 28.1204 62.9181 28.1208 67.6455Z" fill="#6F63EC"/>
<rect x="25.7656" y="24.8438" width="4.89167" height="19.5802" transform="rotate(38.6583 25.7656 24.8438)" fill="#A8CBE2"/>
<path d="M23.6641 24.0659L28.948 18.6484L32.6708 22.3176L41.8643 23.8788L28.8813 36.7951L27.2667 27.8951L23.6641 24.0659Z" fill="#745EF6"/>
<circle cx="14.7547" cy="41.9656" r="3.66875" fill="#6F63EC"/>
<circle cx="14.7518" cy="41.9706" r="2.00964" fill="#5B36F2"/>
<path fill-rule="evenodd" clip-rule="evenodd" d="M28.1208 67.6455H11C11.0005 62.9181 14.8329 59.0859 19.5604 59.0859C24.2879 59.0859 28.1204 62.9181 28.1208 67.6455Z" fill="#5446E0"/>
<rect x="51.9453" y="33.1172" width="3.49823" height="34.0429" rx="1.74912" transform="rotate(-9.37316 51.9453 33.1172)" fill="#745EF6"/>
<rect x="59.9688" y="34.375" width="3.49823" height="30.5908" rx="1.74912" transform="rotate(2.91615 59.9688 34.375)" fill="#07B0AD"/>
<rect x="66.4297" y="38.4766" width="3.49823" height="21.5358" rx="1.74912" transform="rotate(19.9374 66.4297 38.4766)" fill="#1A055D"/>
<rect x="53.3359" y="49.625" width="15.2176" height="18.0351" fill="#FC4A61"/>
<rect x="60.25" y="49.625" width="8.29656" height="18.0351" fill="#FC4A61"/>
<path d="M57.9544 27.3003C58.6647 26.8656 58.6647 25.8477 57.9544 25.4131C57.371 25.0561 56.7313 24.782 56.0519 24.6071C55.877 23.9276 55.6029 23.288 55.2457 22.7046C54.8111 21.9943 53.7932 21.9943 53.3585 22.7046C53.0014 23.288 52.7274 23.9276 52.5524 24.6072C51.8729 24.7821 51.2333 25.0563 50.6499 25.4132C49.9396 25.8479 49.9396 26.8658 50.6499 27.3004C51.2333 27.6576 51.8729 27.9317 52.5524 28.1066C52.7273 28.786 53.0014 29.4257 53.3585 30.0091C53.7932 30.7194 54.8111 30.7194 55.2457 30.0091C55.6029 29.4255 55.877 28.7859 56.0519 28.1065C56.7313 27.9316 57.371 27.6574 57.9544 27.3003Z" fill="#FF8D4C"/>
<path d="M54.2663 22.1719C53.9153 22.1832 53.5687 22.3606 53.3585 22.7041C53.0014 23.2875 52.7274 23.9271 52.5524 24.6067C51.8729 24.7816 51.2333 25.0557 50.6499 25.4127C49.9396 25.8474 49.9396 26.8653 50.6499 27.2999C51.2333 27.657 51.8729 27.9312 52.5524 28.1061C52.7273 28.7855 53.0014 29.4252 53.3585 30.0086C53.5691 30.3527 53.9166 30.5301 54.2683 30.5407C53.5687 28.2281 53.5687 24.5004 54.2663 22.1719Z" fill="#FABD00"/>
<path d="M72.1374 17.9382C72.4621 17.7395 72.4621 17.2741 72.1374 17.0754C71.8707 16.9123 71.5783 16.7869 71.2677 16.707C71.1878 16.3964 71.0624 16.104 70.8992 15.8373C70.7005 15.5126 70.2351 15.5126 70.0364 15.8373C69.8732 16.104 69.7479 16.3964 69.6679 16.707C69.3573 16.787 69.0649 16.9123 68.7982 17.0755C68.4735 17.2742 68.4735 17.7395 68.7982 17.9382C69.0649 18.1015 69.3573 18.2268 69.6679 18.3068C69.7479 18.6174 69.8732 18.9098 70.0364 19.1765C70.2351 19.5012 70.7005 19.5012 70.8992 19.1765C71.0624 18.9097 71.1878 18.6173 71.2677 18.3067C71.5783 18.2268 71.8707 18.1014 72.1374 17.9382Z" fill="#FF8D4C"/>
<path d="M70.4514 15.5938C70.2909 15.5989 70.1325 15.68 70.0364 15.837C69.8732 16.1037 69.7479 16.3961 69.6679 16.7068C69.3573 16.7868 69.0649 16.9121 68.7982 17.0753C68.4735 17.274 68.4735 17.7393 68.7982 17.938C69.0649 18.1013 69.3573 18.2266 69.6679 18.3065C69.7479 18.6171 69.8732 18.9095 70.0364 19.1762C70.1327 19.3335 70.2915 19.4146 70.4523 19.4195C70.1325 18.3623 70.1325 16.6582 70.4514 15.5938Z" fill="#FABD00"/>
<path d="M32.8796 6.40692C33.2043 6.20822 33.2043 5.74289 32.8796 5.54419C32.6129 5.38101 32.3205 5.25568 32.0099 5.17573C31.9299 4.86513 31.8046 4.57272 31.6414 4.30602C31.4427 3.98133 30.9773 3.98133 30.7786 4.30602C30.6154 4.57272 30.4901 4.86513 30.4101 5.1758C30.0995 5.25575 29.8071 5.38107 29.5404 5.54426C29.2157 5.74296 29.2157 6.20829 29.5404 6.40699C29.8071 6.57024 30.0995 6.69557 30.4101 6.77552C30.4901 7.08612 30.6154 7.37852 30.7786 7.64522C30.9773 7.96992 31.4427 7.96992 31.6414 7.64522C31.8046 7.37846 31.9299 7.08605 32.0099 6.77545C32.3205 6.6955 32.6129 6.57017 32.8796 6.40692Z" fill="#FF8D4C"/>
<path d="M31.1936 4.06252C31.0331 4.06769 30.8747 4.14878 30.7786 4.30578C30.6154 4.57248 30.4901 4.86489 30.4101 5.17556C30.0995 5.25551 29.8071 5.38083 29.5404 5.54402C29.2157 5.74272 29.2157 6.20805 29.5404 6.40675C29.8071 6.57 30.0995 6.69533 30.4101 6.77528C30.4901 7.08588 30.6154 7.37828 30.7786 7.64498C30.8749 7.80228 31.0337 7.88338 31.1945 7.88827C30.8747 6.83106 30.8747 5.12695 31.1936 4.06252Z" fill="#FABD00"/>
<path d="M57.0751 12.9974C57.54 12.7129 57.54 12.0466 57.0751 11.7621C56.6933 11.5285 56.2746 11.349 55.8299 11.2346C55.7154 10.7898 55.5359 10.3712 55.3022 9.9893C55.0177 9.5244 54.3514 9.5244 54.0669 9.9893C53.8332 10.3712 53.6538 10.7898 53.5393 11.2347C53.0945 11.3491 52.6759 11.5286 52.294 11.7622C51.8291 12.0467 51.8291 12.713 52.294 12.9975C52.6759 13.2313 53.0945 13.4107 53.5393 13.5252C53.6537 13.9699 53.8332 14.3886 54.0669 14.7704C54.3514 15.2353 55.0177 15.2353 55.3022 14.7704C55.5359 14.3885 55.7154 13.9698 55.8299 13.5251C56.2746 13.4106 56.6933 13.2312 57.0751 12.9974Z" fill="#FF8D4C"/>
<path d="M54.6611 9.64066C54.4313 9.64806 54.2045 9.76416 54.0669 9.98896C53.8332 10.3708 53.6538 10.7895 53.5393 11.2343C53.0945 11.3488 52.6759 11.5282 52.294 11.7619C51.8291 12.0464 51.8291 12.7127 52.294 12.9972C52.6759 13.2309 53.0945 13.4104 53.5393 13.5248C53.6537 13.9696 53.8332 14.3882 54.0669 14.7701C54.2048 14.9953 54.4322 15.1114 54.6624 15.1184C54.2045 13.6047 54.2045 11.1647 54.6611 9.64066Z" fill="#FABD00"/>
<path d="M14.5361 16.4583C15.001 16.1738 15.001 15.5076 14.5361 15.2231C14.1542 14.9894 13.7355 14.81 13.2908 14.6955C13.1763 14.2508 12.9969 13.8321 12.7631 13.4502C12.4786 12.9853 11.8124 12.9853 11.5279 13.4502C11.2941 13.8321 11.1148 14.2508 11.0002 14.6956C10.5555 14.8101 10.1368 14.9895 9.75493 15.2232C9.29002 15.5077 9.29002 16.1739 9.75493 16.4584C10.1368 16.6922 10.5555 16.8716 11.0002 16.9861C11.1147 17.4308 11.2941 17.8495 11.5279 18.2314C11.8124 18.6963 12.4786 18.6963 12.7631 18.2314C12.9969 17.8494 13.1763 17.4307 13.2908 16.986C13.7355 16.8715 14.1542 16.6921 14.5361 16.4583Z" fill="#FF8D4C"/>
<path d="M12.122 13.1016C11.8923 13.109 11.6654 13.2251 11.5279 13.4499C11.2941 13.8318 11.1148 14.2504 11.0002 14.6953C10.5555 14.8097 10.1368 14.9892 9.75493 15.2228C9.29002 15.5073 9.29002 16.1736 9.75493 16.4581C10.1368 16.6918 10.5555 16.8713 11.0002 16.9858C11.1147 17.4305 11.2941 17.8492 11.5279 18.231C11.6657 18.4563 11.8931 18.5724 12.1233 18.5794C11.6654 17.0656 11.6654 14.6257 12.122 13.1016Z" fill="#FABD00"/>
</svg>
